REM DIRINDEX 1\2,1\3
REM DIRNAME folder01,folder02,folder03
TITLE ""
FILE "sample sentencesTrack02.mp3" MP3
  TRACK 01 AUDIO
    TITLE "3:cjc143_2305"
    INDEX 01 00:00:00
  TRACK 02 AUDIO
    TITLE "0:"
    INDEX 01 00:00:62
  TRACK 03 AUDIO
    TITLE "3:cjc143_2306"
    INDEX 01 00:01:34
  TRACK 04 AUDIO
    TITLE "0:"
    INDEX 01 00:04:66
  TRACK 05 AUDIO
    TITLE "3:cjc143_2307"
    INDEX 01 00:05:71
  TRACK 06 AUDIO
    TITLE "0:"
    INDEX 01 00:08:52
  TRACK 07 AUDIO
    TITLE "3:cjc143_2308"
    INDEX 01 00:09:61
  TRACK 08 AUDIO
    TITLE "0:"
    INDEX 01 00:12:26
  TRACK 09 AUDIO
    TITLE "3:cjc143_2309"
    INDEX 01 00:13:37
  TRACK 10 AUDIO
    TITLE "0:"
    INDEX 01 00:15:66
  TRACK 11 AUDIO
    TITLE "3:cjc143_2310"
    INDEX 01 00:17:08
  TRACK 12 AUDIO
    TITLE "0:"
    INDEX 01 00:19:32
  TRACK 13 AUDIO
    TITLE "3:cjc143_2311"
    INDEX 01 00:20:39
  TRACK 14 AUDIO
    TITLE "0:"
    INDEX 01 00:23:28
  TRACK 15 AUDIO
    TITLE "3:cjc143_2312"
    INDEX 01 00:24:35
  TRACK 16 AUDIO
    TITLE "0:"
    INDEX 01 00:28:68
  TRACK 17 AUDIO
    TITLE "3:cjc143_2313"
    INDEX 01 00:30:01
  TRACK 18 AUDIO
    TITLE "0:"
    INDEX 01 00:32:66
  TRACK 19 AUDIO
    TITLE "3:cjc143_2314"
    INDEX 01 00:34:06
  TRACK 20 AUDIO
    TITLE "0:"
    INDEX 01 00:37:57
  TRACK 21 AUDIO
    TITLE "3:cjc143_2315"
    INDEX 01 00:38:63
  TRACK 22 AUDIO
    TITLE "0:"
    INDEX 01 00:41:67
  TRACK 23 AUDIO
    TITLE "3:cjc143_2316"
    INDEX 01 00:43:35
  TRACK 24 AUDIO
    TITLE "0:"
    INDEX 01 00:45:59
  TRACK 25 AUDIO
    TITLE "3:cjc143_2317"
    INDEX 01 00:46:68
  TRACK 26 AUDIO
    TITLE "0:"
    INDEX 01 00:49:10
  TRACK 27 AUDIO
    TITLE "3:cjc143_2318"
    INDEX 01 00:50:21
  TRACK 28 AUDIO
    TITLE "0:"
    INDEX 01 00:54:56
  TRACK 29 AUDIO
    TITLE "3:cjc143_2319"
    INDEX 01 00:55:65
  TRACK 30 AUDIO
    TITLE "0:"
    INDEX 01 01:00:17
  TRACK 31 AUDIO
    TITLE "3:cjc143_2320"
    INDEX 01 01:01:27
  TRACK 32 AUDIO
    TITLE "0:"
    INDEX 01 01:05:01
  TRACK 33 AUDIO
    TITLE "3:cjc143_2321"
    INDEX 01 01:06:22
  TRACK 34 AUDIO
    TITLE "0:"
    INDEX 01 01:09:14
  TRACK 35 AUDIO
    TITLE "3:cjc143_2322"
    INDEX 01 01:10:41
  TRACK 36 AUDIO
    TITLE "0:"
    INDEX 01 01:15:56
  TRACK 37 AUDIO
    TITLE "3:cjc143_2323"
    INDEX 01 01:16:65
  TRACK 38 AUDIO
    TITLE "0:"
    INDEX 01 01:21:29
  TRACK 39 AUDIO
    TITLE "3:cjc143_2324"
    INDEX 01 01:22:35
  TRACK 40 AUDIO
    TITLE "0:"
    INDEX 01 01:24:63
  TRACK 41 AUDIO
    TITLE "3:cjc143_2325"
    INDEX 01 01:25:74
  TRACK 42 AUDIO
    TITLE "0:"
    INDEX 01 01:29:50
  TRACK 43 AUDIO
    TITLE "3:cjc143_2326"
    INDEX 01 01:30:56
  TRACK 44 AUDIO
    TITLE "0:"
    INDEX 01 01:33:05
  TRACK 45 AUDIO
    TITLE "3:cjc143_2327"
    INDEX 01 01:34:14
  TRACK 46 AUDIO
    TITLE "0:"
    INDEX 01 01:37:28
  TRACK 47 AUDIO
    TITLE "3:cjc143_2328"
    INDEX 01 01:38:36
  TRACK 48 AUDIO
    TITLE "0:"
    INDEX 01 01:40:70
  TRACK 49 AUDIO
    TITLE "3:cjc143_2329"
    INDEX 01 01:42:02
  TRACK 50 AUDIO
    TITLE "0:"
    INDEX 01 01:45:08
  TRACK 51 AUDIO
    TITLE "3:cjc143_2330"
    INDEX 01 01:46:19
  TRACK 52 AUDIO
    TITLE "0:"
    INDEX 01 01:48:73
  TRACK 53 AUDIO
    TITLE "3:cjc143_2331"
    INDEX 01 01:50:07
  TRACK 54 AUDIO
    TITLE "0:"
    INDEX 01 01:53:25
  TRACK 55 AUDIO
    TITLE "3:cjc143_2332"
    INDEX 01 01:54:35
  TRACK 56 AUDIO
    TITLE "0:"
    INDEX 01 01:57:27
  TRACK 57 AUDIO
    TITLE "3:cjc143_2333"
    INDEX 01 01:58:40
  TRACK 58 AUDIO
    TITLE "0:"
    INDEX 01 02:01:27
  TRACK 59 AUDIO
    TITLE "3:cjc143_2334"
    INDEX 01 02:02:32
  TRACK 60 AUDIO
    TITLE "0:"
    INDEX 01 02:05:03
  TRACK 61 AUDIO
    TITLE "3:cjc143_2335"
    INDEX 01 02:06:14
  TRACK 62 AUDIO
    TITLE "0:"
    INDEX 01 02:10:43
  TRACK 63 AUDIO
    TITLE "3:cjc143_2336"
    INDEX 01 02:11:55
  TRACK 64 AUDIO
    TITLE "0:"
    INDEX 01 02:14:41
